<?xml version="1.0" standalone="no"?>
<!DOCTYPE svg PUBLIC "-//W3C//DTD SVG 20010904//EN"
 "http://www.w3.org/TR/2001/REC-SVG-20010904/DTD/svg10.dtd">
<svg version="1.0" xmlns="http://www.w3.org/2000/svg"
 width="863.000000pt" height="863.000000pt" viewBox="0 0 863.000000 863.000000"
 preserveAspectRatio="xMidYMid meet">
<metadata>
Created by potrace 1.11, written by Peter Selinger 2001-2013
</metadata>
<g transform="translate(0.000000,863.000000) scale(0.100000,-0.100000)"
fill="#000000" stroke="none">
<path d="M4007 7880 c-675 -65 -1312 -325 -1852 -757 -150 -120 -409 -381
-534 -537 -390 -491 -647 -1068 -745 -1671 -37 -229 -41 -285 -41 -600 0 -315
4 -371 41 -600 82 -509 296 -1037 590 -1461 505 -726 1257 -1237 2099 -1424
288 -64 389 -74 750 -74 293 0 346 2 475 22 525 82 946 239 1380 516 520 331
964 826 1245 1385 188 375 302 752 361 1191 23 169 27 698 6 850 -65 472 -162
810 -336 1175 -393 824 -1074 1453 -1920 1774 -229 88 -480 152 -746 192 -114
17 -203 22 -415 24 -148 2 -309 0 -358 -5z m-2047 -1662 c0 -5 -34 -8 -75 -8
l-75 0 0 -1900 0 -1900 2455 0 2455 0 0 75 c0 41 3 75 7 75 8 0 473 -223 470
-226 -1 -1 -109 -52 -239 -112 l-238 -110 0 79 0 79 -2525 0 -2525 0 0 1970 0
1970 -79 0 -79 0 111 236 112 237 112 -229 c62 -126 113 -232 113 -236z m4444
-110 c-455 -467 -1008 -1027 -1010 -1025 -2 2 43 131 100 287 57 157 102 287
100 288 -1 2 -745 -359 -1654 -803 -908 -444 -1652 -806 -1654 -804 -2 2 -27
50 -55 107 l-52 103 373 182 c205 101 948 464 1651 807 702 344 1277 627 1277
630 0 4 -136 51 -302 105 -196 64 -294 101 -278 103 14 2 387 41 830 87 443
46 809 83 814 84 5 1 -58 -68 -140 -151z m166 -2133 l0 -1305 -350 0 -350 0 0
1305 0 1305 350 0 350 0 0 -1305z m-1250 -260 l0 -1045 -350 0 -350 0 0 1045
0 1045 350 0 350 0 0 -1045z m-1260 -270 l0 -775 -345 0 -345 0 0 775 0 775
345 0 345 0 0 -775z m-1250 -255 l0 -520 -345 0 -345 0 0 520 0 520 345 0 345
0 0 -520z"/>
</g>
</svg>
